<svg width="158" height="32" viewBox="0 0 158 32" fill="none" xmlns="http://www.w3.org/2000/svg">
<path fill-rule="evenodd" clip-rule="evenodd" d="M16 0C7.16344 0 0 7.16344 0 16C0 24.8366 7.16344 32 16 32C24.8366 32 32 24.8366 32 16C32 7.16344 24.8366 0 16 0ZM17.6676 16.7028V25.4077H14.066V16.7031H12.2666V13.7034H14.066V11.9024C14.066 9.4552 15.082 8 17.9687 8H20.372V11.0001H18.8698C17.7461 11.0001 17.6717 11.4193 17.6717 12.2017L17.6676 13.7031H20.389L20.0706 16.7028H17.6676Z" fill="white"/>
<path fill-rule="evenodd" clip-rule="evenodd" d="M58 0C49.1634 0 42 7.16344 42 16C42 24.8366 49.1634 32 58 32C66.8366 32 74 24.8366 74 16C74 7.16344 66.8366 0 58 0ZM54.4823 7.51835C55.3925 7.47693 55.6834 7.4668 58.0009 7.4668H57.9983C60.3165 7.4668 60.6063 7.47693 61.5165 7.51835C62.425 7.55995 63.0454 7.70378 63.5894 7.9148C64.1512 8.13258 64.6259 8.42414 65.1006 8.89881C65.5752 9.37313 65.8668 9.84922 66.0855 10.4105C66.2952 10.9531 66.4392 11.5732 66.4819 12.4816C66.5228 13.3918 66.5335 13.6827 66.5335 16.0002C66.5335 18.3178 66.5228 18.6079 66.4819 19.5181C66.4392 20.4262 66.2952 21.0465 66.0855 21.5893C65.8668 22.1503 65.5752 22.6264 65.1006 23.1007C64.6264 23.5754 64.151 23.8677 63.59 24.0856C63.047 24.2967 62.4262 24.4405 61.5178 24.4821C60.6075 24.5235 60.3176 24.5336 57.9999 24.5336C55.6825 24.5336 55.3918 24.5235 54.4816 24.4821C53.5733 24.4405 52.9531 24.2967 52.4101 24.0856C51.8492 23.8677 51.3731 23.5754 50.899 23.1007C50.4245 22.6264 50.1329 22.1503 49.9148 21.5891C49.704 21.0465 49.5601 20.4264 49.5184 19.5179C49.4771 18.6077 49.4668 18.3178 49.4668 16.0002C49.4668 13.6827 49.4775 13.3917 49.5182 12.4814C49.5591 11.5733 49.7031 10.9531 49.9146 10.4103C50.1333 9.84922 50.4249 9.37313 50.8995 8.89881C51.3738 8.42432 51.8499 8.13276 52.4112 7.9148C52.9538 7.70378 53.5739 7.55995 54.4823 7.51835Z" fill="white"/>
<path fill-rule="evenodd" clip-rule="evenodd" d="M57.236 9.00409C57.3846 9.00385 57.5445 9.00393 57.7171 9.004L58.0015 9.00409C60.2799 9.00409 60.55 9.01226 61.4497 9.05315C62.2817 9.0912 62.7333 9.23022 63.0341 9.34702C63.4323 9.50169 63.7162 9.68658 64.0147 9.98525C64.3134 10.2839 64.4983 10.5684 64.6533 10.9666C64.7701 11.267 64.9093 11.7186 64.9472 12.5506C64.988 13.4502 64.9969 13.7204 64.9969 15.9978C64.9969 18.2751 64.988 18.5453 64.9472 19.4449C64.9091 20.2769 64.7701 20.7285 64.6533 21.0289C64.4986 21.4271 64.3134 21.7107 64.0147 22.0092C63.716 22.3079 63.4325 22.4928 63.0341 22.6474C62.7336 22.7648 62.2817 22.9034 61.4497 22.9415C60.5501 22.9824 60.2799 22.9913 58.0015 22.9913C55.7229 22.9913 55.4528 22.9824 54.5533 22.9415C53.7213 22.9031 53.2697 22.7641 52.9687 22.6472C52.5705 22.4926 52.2861 22.3077 51.9874 22.009C51.6887 21.7104 51.5038 21.4266 51.3488 21.0282C51.232 20.7278 51.0928 20.2762 51.0549 19.4442C51.014 18.5446 51.0059 18.2744 51.0059 15.9956C51.0059 13.7168 51.014 13.448 51.0549 12.5485C51.093 11.7165 51.232 11.2649 51.3488 10.9641C51.5035 10.5659 51.6887 10.2814 51.9874 9.98276C52.2861 9.68409 52.5705 9.4992 52.9687 9.34418C53.2695 9.22684 53.7213 9.08818 54.5533 9.04995C55.3405 9.0144 55.6456 9.00373 57.236 9.00195V9.00409ZM62.5562 10.4203C61.9909 10.4203 61.5322 10.8784 61.5322 11.4439C61.5322 12.0093 61.9909 12.4679 62.5562 12.4679C63.1216 12.4679 63.5802 12.0093 63.5802 11.4439C63.5802 10.8786 63.1216 10.4199 62.5562 10.4199V10.4203ZM53.6191 15.9995C53.6191 13.5794 55.5812 11.6173 58.0012 11.6172C60.4213 11.6172 62.383 13.5793 62.383 15.9995C62.383 18.4196 60.4215 20.3808 58.0014 20.3808C55.5813 20.3808 53.6191 18.4196 53.6191 15.9995Z" fill="white"/>
<path fill-rule="evenodd" clip-rule="evenodd" d="M58.0007 13.1543C59.5716 13.1543 60.8452 14.4277 60.8452 15.9988C60.8452 17.5696 59.5716 18.8432 58.0007 18.8432C56.4297 18.8432 55.1562 17.5696 55.1562 15.9988C55.1562 14.4277 56.4297 13.1543 58.0007 13.1543V13.1543Z" fill="white"/>
<path fill-rule="evenodd" clip-rule="evenodd" d="M100 0C91.1634 0 84 7.16344 84 16C84 24.8366 91.1634 32 100 32C108.837 32 116 24.8366 116 16C116 7.16344 108.837 0 100 0ZM99.5544 13.5582L99.5208 13.0046C99.4201 11.5697 100.304 10.259 101.703 9.75059C102.218 9.56981 103.091 9.54721 103.662 9.70539C103.886 9.77318 104.311 9.99916 104.613 10.2025L105.161 10.5754L105.766 10.3833C106.102 10.2816 106.549 10.1121 106.751 9.99916C106.941 9.89747 107.109 9.84097 107.109 9.87487C107.109 10.0669 106.695 10.7223 106.348 11.0838C105.878 11.5923 106.012 11.6375 106.963 11.2985C107.534 11.1064 107.545 11.1064 107.433 11.3211C107.366 11.4341 107.019 11.8295 106.65 12.1911C106.023 12.8125 105.99 12.8803 105.99 13.4001C105.99 14.2023 105.609 15.8745 105.229 16.7897C104.523 18.5071 103.013 20.281 101.502 21.1736C99.3753 22.4277 96.5438 22.7441 94.16 22.0097C93.3654 21.7611 92 21.1284 92 21.0154C92 20.9815 92.4141 20.9363 92.9177 20.925C93.9697 20.9024 95.0218 20.6086 95.9171 20.0889L96.5214 19.7273L95.8276 19.4901C94.8427 19.1511 93.9585 18.3715 93.7347 17.6371C93.6676 17.3998 93.6899 17.3885 94.3167 17.3885L94.9658 17.3772L94.4174 17.1173C93.7683 16.7897 93.1751 16.236 92.8841 15.6711C92.6715 15.2643 92.4029 14.2362 92.4812 14.1571C92.5036 14.1232 92.7387 14.191 93.0072 14.2814C93.7795 14.5638 93.8802 14.496 93.4325 14.0215C92.5932 13.1628 92.3357 11.886 92.7387 10.6771L92.9289 10.1347L93.6676 10.8692C95.1784 12.3493 96.9579 13.2306 98.9948 13.4905L99.5544 13.5582Z" fill="white"/>
<path fill-rule="evenodd" clip-rule="evenodd" d="M142 0C133.163 0 126 7.16344 126 16C126 24.8366 133.163 32 142 32C150.837 32 158 24.8366 158 16C158 7.16344 150.837 0 142 0ZM148.668 10.501C149.402 10.7025 149.981 11.2962 150.177 12.0502C150.533 13.4168 150.533 16.2681 150.533 16.2681C150.533 16.2681 150.533 19.1193 150.177 20.486C149.981 21.24 149.402 21.8337 148.668 22.0353C147.337 22.4014 142 22.4014 142 22.4014C142 22.4014 136.663 22.4014 135.332 22.0353C134.598 21.8337 134.02 21.24 133.823 20.486C133.467 19.1193 133.467 16.2681 133.467 16.2681C133.467 16.2681 133.467 13.4168 133.823 12.0502C134.02 11.2962 134.598 10.7025 135.332 10.501C136.663 10.1348 142 10.1348 142 10.1348C142 10.1348 147.337 10.1348 148.668 10.501Z" fill="white"/>
<path fill-rule="evenodd" clip-rule="evenodd" d="M140.4 19.1986V13.8652L144.667 16.532L140.4 19.1986Z" fill="white"/>
</svg>
