<svg width="1169" height="41" viewBox="0 0 1169 41" fill="none" xmlns="http://www.w3.org/2000/svg">
<path d="M1076.41 8.61308V22.7191C1076.41 27.4211 1074.54 29.3752 1070.16 29.3752C1065.77 29.3752 1063.91 27.4211 1063.91 22.7191V8.00243H1059.69C1059.3 8.00243 1059.14 8.18562 1059.14 8.61308V22.9023C1059.14 30.7797 1063.64 33.5276 1070.16 33.5276C1076.68 33.5276 1081.18 30.7797 1081.18 22.9023V8.00243H1076.96C1076.63 8.00243 1076.41 8.18562 1076.41 8.61308" fill="#AEC6CE"/>
<path d="M1137.64 12.0938C1137.97 12.0938 1138.13 11.9717 1138.24 11.6663L1139.45 8.30775C1139.5 8.12456 1139.45 8.00243 1139.28 8.00243H1122.29C1120.7 8.00243 1120.1 8.55201 1120.1 9.77331V31.6346C1120.1 32.6727 1120.53 33.1002 1121.8 33.1002H1137.64C1137.97 33.1002 1138.13 32.978 1138.24 32.6727L1139.45 29.3141C1139.5 29.1309 1139.45 29.0088 1139.28 29.0088H1124.76V24.5511C1124.76 23.0244 1125.52 22.2916 1127.55 22.2916H1133.85C1134.18 22.2916 1134.35 22.1695 1134.46 21.8642L1135.61 18.6277C1135.66 18.4445 1135.61 18.3224 1135.44 18.3224H1124.7V12.0938H1137.64" fill="#AEC6CE"/>
<path fill-rule="evenodd" clip-rule="evenodd" d="M1110.34 14.3532C1110.34 16.7347 1109.57 18.7499 1107.71 19.849C1110.23 20.6429 1111.38 23.1466 1111.33 26.1387C1111.33 31.1461 1108.15 33.1002 1103.71 33.1002H1091.92C1090.66 33.1002 1090.22 32.6727 1090.22 31.6346V9.77331C1090.22 8.55201 1090.82 8.00243 1092.41 8.00243H1102.06C1106.28 8.00243 1110.34 8.79627 1110.34 14.3532ZM1094.93 12.0329H1102.39C1104.86 12.0329 1105.57 13.0711 1105.57 15.2694C1105.57 17.4067 1104.86 18.5058 1102.39 18.5058H1094.93V12.0329ZM1103.27 29.0699H1094.93V24.49C1094.93 22.9634 1095.7 22.2306 1097.73 22.2306H1103.27C1105.9 22.2306 1106.67 23.3909 1106.67 25.6503C1106.67 27.9707 1105.9 29.0699 1103.27 29.0699Z" fill="#AEC6CE"/>
<path fill-rule="evenodd" clip-rule="evenodd" d="M1163.89 23.0244L1168.94 32.6727C1169.05 32.7948 1169.05 33.1002 1168.66 33.1002H1164.39C1164.07 33.1002 1163.96 32.9309 1163.8 32.7009C1163.8 32.6916 1163.79 32.6822 1163.78 32.6727L1159.23 23.5129H1155.07C1153.04 23.5129 1152.27 24.2457 1152.27 25.7724V33.1002H1148.16C1147.78 33.1002 1147.61 32.917 1147.61 32.4895V9.77331C1147.61 8.55201 1148.22 8.00243 1149.81 8.00243H1159.45C1165.04 8.00243 1168.44 9.65118 1168.44 15.7577C1168.44 20.4597 1166.42 22.2916 1163.89 23.0244ZM1152.27 19.6661H1160.11C1163.07 19.6661 1163.67 18.3837 1163.67 15.819C1163.67 13.3153 1163.02 12.0329 1160.11 12.0329H1152.27V19.6661Z" fill="#AEC6CE"/>
<path fill-rule="evenodd" clip-rule="evenodd" d="M830.874 26.0674C831.047 26.4842 831.221 26.9606 831.394 27.4369C831.915 28.8064 832.03 30.1163 831.857 31.4262C831.452 34.1651 829.717 36.5468 827.172 37.6186C826.247 38.0353 825.264 38.214 824.223 38.214C823.933 38.214 823.586 38.214 823.297 38.1544C822.083 38.0354 820.868 37.6186 819.654 36.9041C818.208 36.0705 816.762 34.8201 815.143 33.0338C813.523 34.8201 812.135 36.0705 810.632 36.9041C809.417 37.6186 808.203 37.9758 806.988 38.1544C806.844 38.1544 806.685 38.1693 806.526 38.1842C806.366 38.1991 806.207 38.214 806.063 38.214C805.022 38.214 804.039 38.0353 803.113 37.6186C800.627 36.5468 798.776 34.2247 798.371 31.4262C798.197 30.0567 798.371 28.7468 798.834 27.4369C799.007 26.901 799.181 26.4842 799.354 26.0674C799.643 25.4125 799.932 24.7575 800.164 24.1621L800.222 24.1026C802.766 18.5056 805.427 12.8491 808.203 7.2522L808.318 7.01403C808.608 6.47816 808.897 5.88274 809.186 5.28732C809.264 5.16131 809.342 5.0331 809.42 4.90353L809.42 4.90351C809.751 4.35962 810.096 3.79184 810.516 3.26289C811.731 1.83389 813.35 1.0003 815.143 1.0003C816.878 1.0003 818.555 1.83389 819.712 3.32244C820.29 3.9774 820.695 4.6919 821.042 5.34686L821.042 5.34688C821.331 5.94229 821.62 6.5377 821.909 7.07357L822.025 7.31174C824.859 12.9087 827.519 18.5652 830.006 24.1621H830.064C830.295 24.7575 830.584 25.4125 830.874 26.0674ZM859.328 10.3484C859.328 11.7179 858.287 12.7897 856.957 12.7897C855.627 12.7897 854.586 11.7179 854.586 10.3484C854.586 8.97897 855.627 7.90722 856.957 7.90722C858.345 7.96676 859.328 9.03851 859.328 10.3484ZM849.67 15.231V15.8264C849.67 15.8264 848.571 14.3378 846.142 14.3378C842.209 14.3378 839.144 17.434 839.144 21.721C839.144 25.9485 842.209 29.1042 846.142 29.1042C848.571 29.1042 849.67 27.5561 849.67 27.5561V28.2111C849.67 28.5088 849.901 28.747 850.19 28.747H853.14V14.6951H850.19C849.843 14.6951 849.67 14.9332 849.67 15.231ZM846.72 25.7103C848.05 25.7103 849.149 24.9958 849.669 24.1622V19.1607C849.149 18.3867 847.992 17.6126 846.72 17.6126C844.406 17.6126 842.614 19.1012 842.614 21.6615C842.614 24.2218 844.406 25.7103 846.72 25.7103ZM855.222 14.6951H858.692V28.6875H855.222V14.6951ZM903.57 15.8263C903.57 15.8263 904.727 14.3378 907.098 14.3378C911.031 14.3378 914.096 17.4339 914.096 21.6614C914.096 25.8889 911.031 29.0446 907.098 29.0446C904.669 29.0446 903.57 27.4965 903.57 27.4965V28.1515C903.57 28.4492 903.339 28.6873 903.05 28.6873H900.1V7.96677H903.57V15.8263ZM906.521 25.6509C905.19 25.6509 904.149 24.9364 903.571 24.1028V19.1013C904.092 18.3272 905.248 17.5532 906.521 17.5532C908.834 17.5532 910.627 19.0417 910.627 21.602C910.627 24.1623 908.834 25.6509 906.521 25.6509ZM898.308 28.747V20.4111C898.308 18.0294 897.845 16.7195 896.689 15.7073C895.648 14.8142 894.375 14.3378 892.872 14.3378C891.542 14.3378 890.211 14.7546 889.17 15.8264V15.231C889.17 14.9332 888.939 14.6951 888.65 14.6951H885.874V28.747H889.344V18.9821C890.038 18.1485 891.137 17.6126 892.178 17.6126C894.086 17.6126 894.838 18.5058 894.838 20.8279V28.747H898.308ZM877.429 14.3378C875.058 14.3378 873.902 15.8263 873.902 15.8263V7.96677H870.432V28.6873H873.381C873.67 28.6873 873.902 28.4492 873.902 28.1515V27.4965C873.902 27.4965 875 29.0446 877.429 29.0446C881.362 29.0446 884.427 25.8889 884.427 21.6614C884.485 17.4339 881.42 14.3378 877.429 14.3378ZM873.901 24.1028C874.48 24.9364 875.521 25.6509 876.851 25.6509C879.164 25.6509 880.957 24.1623 880.957 21.602C880.957 19.0417 879.164 17.5532 876.851 17.5532C875.579 17.5532 874.422 18.3272 873.901 19.1013V24.1028ZM867.482 14.3378C868.523 14.3378 869.101 14.5165 869.101 14.5165V17.8508C869.101 17.8508 866.21 16.8386 864.417 18.9821V28.747H860.947V14.6951H863.896C864.185 14.6951 864.417 14.9333 864.417 15.231V15.8264C864.995 15.0523 866.383 14.3378 867.482 14.3378ZM815.086 29.3423C813.119 26.7819 811.847 24.4003 811.442 22.4354C811.269 21.6018 811.211 20.8278 811.326 20.1728C811.384 19.5774 811.616 19.0415 811.905 18.6247C812.599 17.6125 813.755 16.9575 815.086 16.9575C816.416 16.9575 817.63 17.553 818.266 18.6247C818.556 19.101 818.787 19.5774 818.845 20.1728C818.96 20.8278 818.903 21.6018 818.729 22.4354C818.324 24.4003 817.052 26.7819 815.086 29.3423ZM826.247 35.4751C828.04 34.7606 829.312 33.0934 829.544 31.1285C829.659 30.1163 829.544 29.2232 829.37 28.2705C829.307 28.0771 829.228 27.8837 829.14 27.6714C829.066 27.4916 828.987 27.2981 828.907 27.0797C828.763 26.782 828.633 26.4694 828.503 26.1568C828.372 25.8442 828.242 25.5316 828.098 25.2339V25.1743C825.611 19.6369 822.95 13.9805 820.174 8.44307L820.059 8.2049C819.77 7.60948 819.48 7.01406 819.191 6.47819C818.902 5.88277 818.555 5.28735 818.15 4.81101C817.398 3.91789 816.357 3.44155 815.259 3.44155C814.16 3.44155 813.119 3.91789 812.367 4.81101C811.962 5.34689 811.615 5.88277 811.326 6.47819L811.326 6.47829C811.037 7.07368 810.748 7.66906 810.458 8.2049L810.343 8.44307C807.509 13.9805 804.849 19.6369 802.362 25.1743L802.304 25.2339C802.015 25.8293 801.726 26.4843 801.494 27.0797L801.494 27.0797C801.321 27.4965 801.147 27.9133 801.031 28.2705C800.627 29.3423 800.569 30.2354 800.684 31.1881C800.916 33.0934 802.188 34.7606 803.981 35.5346C804.791 35.8323 805.716 36.011 806.699 35.8919C807.625 35.7728 808.55 35.4751 809.475 34.9392C810.748 34.1652 812.078 33.0339 813.581 31.3072C811.21 28.2705 809.707 25.4721 809.186 23.0308C808.897 21.8995 808.839 20.8278 809.013 19.8751C809.186 18.9224 809.475 18.0889 809.996 17.3148C811.095 15.7072 813.003 14.695 815.085 14.695C817.167 14.695 819.076 15.6476 820.174 17.3148C820.695 18.0889 820.984 18.9224 821.158 19.8751C821.273 20.8278 821.215 21.8995 820.984 23.0308C820.406 25.4721 818.96 28.211 816.589 31.2476C818.092 32.9743 819.365 34.1056 820.695 34.8797C821.678 35.4155 822.546 35.7133 823.471 35.8323C824.454 35.9514 825.379 35.8323 826.247 35.4751Z" fill="#AEC6CE"/>
<path d="M565.926 13.8796H552.374V18.0059H562.011C561.529 23.8201 556.831 26.3834 552.435 26.3834C546.773 26.3834 541.834 21.757 541.834 15.3175C541.834 9.00313 546.532 4.12665 552.435 4.12665C557.012 4.12665 559.662 7.12756 559.662 7.12756L562.433 4.12665C562.433 4.12665 558.819 0.000397882 552.254 0.000397882C543.882 -0.0621211 537.437 7.2526 537.437 15.1925C537.437 22.9449 543.52 30.5097 552.495 30.5097C560.385 30.5097 566.167 24.9455 566.167 16.6304C566.167 14.8799 565.926 13.8796 565.926 13.8796V13.8796Z" fill="#AEC6CE"/>
<path fill-rule="evenodd" clip-rule="evenodd" d="M567.432 20.5692C567.432 15.3176 571.407 10.8163 576.948 10.8163C581.526 10.8163 586.465 14.1923 586.525 20.6943C586.525 26.446 582.309 30.5097 577.069 30.5097C571.287 30.5097 567.432 25.9459 567.432 20.5692ZM582.309 20.6941C582.309 17.068 579.719 14.7548 577.008 14.7548C573.936 14.7548 571.587 17.2555 571.648 20.6316C571.648 24.1326 573.997 26.6334 577.008 26.6334C579.779 26.6334 582.309 24.3202 582.309 20.6941Z" fill="#AEC6CE"/>
<path fill-rule="evenodd" clip-rule="evenodd" d="M588.152 20.5692C588.152 15.3176 592.127 10.8163 597.668 10.8163C602.246 10.8163 607.185 14.1923 607.245 20.6943C607.245 26.446 603.029 30.5097 597.789 30.5097C592.007 30.5097 588.152 25.9459 588.152 20.5692ZM603.029 20.6941C603.029 17.068 600.439 14.7548 597.728 14.7548C594.656 14.7548 592.307 17.2555 592.368 20.6316C592.368 24.1326 594.717 26.6334 597.728 26.6334C600.499 26.6334 603.029 24.3202 603.029 20.6941Z" fill="#AEC6CE"/>
<path fill-rule="evenodd" clip-rule="evenodd" d="M608.871 20.694C608.871 15.505 612.847 10.8785 617.966 10.8785C620.195 10.8785 621.881 11.7538 622.965 13.1292V11.4412H626.941V29.1341C626.941 36.0737 623.086 39.3872 618.027 39.3872C613.389 39.3872 610.799 36.4488 609.534 33.6355L613.208 32.0725C613.75 33.3229 615.196 35.5735 618.087 35.5735C621.098 35.5735 623.086 33.5104 623.086 30.1344V28.1963C621.942 29.5092 620.556 30.572 617.846 30.572C613.509 30.572 608.871 26.5708 608.871 20.694ZM623.387 20.7565C623.387 17.0053 620.797 14.7547 618.328 14.7547C615.678 14.7547 613.088 16.9428 613.028 20.819C613.028 24.3826 615.557 26.6958 618.268 26.6958C620.858 26.6958 623.387 24.6327 623.387 20.7565Z" fill="#AEC6CE"/>
<path fill-rule="evenodd" clip-rule="evenodd" d="M635.915 20.6318C635.915 14.755 639.95 10.8163 644.768 10.8163C648.503 10.8163 651.334 13.4421 652.599 16.443L653.261 18.0685L640.552 23.5701C641.335 25.0706 642.54 26.5711 645.19 26.5711C647.539 26.5711 648.985 25.2582 649.828 23.8827L653.141 26.1959C651.695 28.1965 649.165 30.5097 645.19 30.5097C640.432 30.5097 635.915 26.8211 635.915 20.6318ZM648.442 16.7556C647.84 15.5677 646.635 14.6299 644.889 14.6299C642.178 14.6299 639.528 17.5683 640.01 20.4442L648.442 16.7556Z" fill="#AEC6CE"/>
<path d="M629.892 29.9468H634.048V0.938029H629.892V29.9468Z" fill="#AEC6CE"/>
<path fill-rule="evenodd" clip-rule="evenodd" d="M290.233 34.2112L290.233 34.2112L290.233 34.2112C289.564 34.282 288.885 34.3539 288.189 34.4423L282.61 17.7736V35.1516C280.866 35.3289 279.297 35.5653 277.611 35.8609V4.00121H282.261L288.596 22.0885V4.00121H293.537V33.7921C292.445 33.9771 291.354 34.0926 290.233 34.2112ZM303.185 15.7048C304.167 15.7048 305.408 15.6738 306.619 15.6435H306.619L306.619 15.6435L306.62 15.6435C307.774 15.6147 308.902 15.5866 309.753 15.5866V20.5517C307.603 20.5517 305.045 20.5517 303.185 20.6699V28.0585C304.091 28.0021 305.003 27.9397 305.918 27.8771L305.918 27.8771H305.919H305.919H305.919H305.919C307.882 27.7428 309.864 27.6072 311.845 27.5265V32.3144L298.303 33.3783V4.00121H311.845V8.96636H303.185V15.7048ZM324.923 9.02547H329.98C329.98 9.02547 329.98 4.00121 330.038 4.00121H314.984V9.02547H320.041V31.9597C321.61 31.9006 323.295 31.9006 324.923 31.9006V9.02547ZM336.943 15.3501H343.627V20.3153H336.943V31.605H332.119V4.00121H345.778V8.96636H336.943V15.3501ZM358.809 27.4686C357.129 27.3681 355.435 27.2669 353.741 27.231V4.00121H348.859V31.9006C353.334 32.0188 357.693 32.2552 362.053 32.5508V27.6448C360.979 27.5983 359.897 27.5336 358.81 27.4686L358.809 27.4686ZM366.18 32.9054C366.723 32.9464 367.274 32.9803 367.829 33.0144C368.877 33.0788 369.94 33.1442 371.004 33.2601V4.00121H366.18V32.9054ZM386.174 19.1331L392.393 4.00121H386.987L383.558 12.3356L380.361 4.00121H375.13L380.826 18.9558L374.549 33.4965C375.247 33.5911 375.944 33.6668 376.642 33.7424C377.688 33.8559 378.734 33.9694 379.78 34.1467L383.384 25.6942L386.871 34.9151C387.523 35.0186 388.167 35.1294 388.809 35.2398C390 35.4446 391.184 35.6481 392.393 35.8018L386.174 19.1331Z" fill="#AEC6CE"/>
<path d="M23.8432 4.46129C23.3131 2.66764 21.4576 1.70183 19.7346 2.25372C18.0116 2.80562 17.0839 4.73724 17.614 6.53088L26.0963 33.7115C26.6927 35.3672 28.4157 36.333 30.0724 35.8501C31.7953 35.2982 32.8556 33.4356 32.3255 31.642C32.3255 31.573 23.8432 4.46129 23.8432 4.46129" fill="#AEC6CE"/>
<path d="M10.7223 8.94556C10.1922 7.15191 8.33671 6.1861 6.61374 6.738C4.89078 7.28989 3.96303 9.22151 4.49317 11.0152L12.9755 38.1958C13.5719 39.8515 15.2948 40.8173 16.9515 40.3344C18.6745 39.7825 19.7348 37.9199 19.2046 36.1262C19.2046 36.0572 10.7223 8.94556 10.7223 8.94556" fill="#AEC6CE"/>
<path d="M34.579 27.0196C36.3019 26.4677 37.2297 24.5361 36.6996 22.7425C36.1694 20.9488 34.3139 19.983 32.5909 20.5349L6.41516 29.2962C4.82474 29.9171 3.89699 31.7107 4.36086 33.4354C4.89101 35.229 6.68024 36.3328 8.4032 35.7809C8.53573 35.7809 34.579 27.0196 34.579 27.0196" fill="#AEC6CE"/>
<path d="M11.8491 34.6771C13.5721 34.1252 15.7589 33.3664 18.0783 32.5385C17.5482 30.7449 16.8192 28.4683 16.024 26.0538L9.79484 28.1924L11.8491 34.6771" fill="#AEC6CE"/>
<path d="M25.0358 30.1931C27.4214 29.3652 29.6082 28.6754 31.2649 28.0545C30.7348 26.2609 30.0058 23.9843 29.2106 21.5698L22.9815 23.7084L25.0358 30.1931" fill="#AEC6CE"/>
<path d="M30.2714 13.2913C31.9944 12.7395 32.9222 10.8078 32.392 9.01419C31.8619 7.22054 30.0064 6.25473 28.2834 6.80662L2.17389 15.6369C0.583461 16.2578 -0.344289 18.0514 0.119586 19.7761C0.649728 21.6387 2.43896 22.7425 4.16192 22.1216C4.22819 22.1216 30.2714 13.2913 30.2714 13.2913" fill="#AEC6CE"/>
<path d="M7.60787 20.9488C9.33083 20.3969 11.5177 19.6381 13.837 18.8102C13.0418 16.3267 12.3791 14.0502 11.7827 12.3255L5.55357 14.4641L7.60787 20.9488" fill="#AEC6CE"/>
<path d="M20.7288 16.5337C23.1144 15.7058 25.3013 15.016 26.958 14.3951C26.1628 11.9116 25.5001 9.63502 24.9037 7.91036L18.6745 10.0489L20.7288 16.5337" fill="#AEC6CE"/>
<path d="M61.0198 11.6357C62.1463 12.1876 62.2789 12.5326 61.3511 14.3262C60.4234 16.1889 60.2246 16.2578 59.0317 15.7749C57.5738 15.1541 55.7846 14.6711 54.5918 14.6711C52.67 14.6711 51.4109 15.361 51.4109 16.4648C51.4109 20.0521 62.4777 18.1205 62.4777 25.847C62.4777 29.7102 59.2968 32.2627 54.5255 32.2627C52.0074 32.2627 48.8928 31.3659 46.7722 30.2621C45.7119 29.7102 45.6456 29.3653 46.5734 27.5026C47.3686 25.9159 47.6337 25.709 48.7602 26.1919C50.6157 27.0197 52.8688 27.6406 54.4593 27.6406C56.2485 27.6406 57.375 26.8818 57.375 25.778C57.375 22.2597 46.1095 23.9153 46.1095 16.4648C46.1095 12.5326 49.2904 9.8421 53.9954 9.8421C56.2485 10.0491 59.098 10.7389 61.0198 11.6357" fill="#AEC6CE"/>
<path d="M69.9663 2.52957V31.2279C69.9663 31.6419 69.5025 32.1248 68.9061 32.1248H65.9903C65.3276 32.1248 64.93 31.6419 64.93 31.2279V2.52957C64.93 1.08086 65.3276 1.01187 67.4482 1.01187C69.8338 0.942885 69.9663 1.14984 69.9663 2.52957" fill="#AEC6CE"/>
<path fill-rule="evenodd" clip-rule="evenodd" d="M90.509 30.9518V18.6033C90.509 13.2223 86.9969 10.0489 81.4304 10.0489C78.9122 10.0489 76.1289 10.8768 74.1409 12.2565C73.0806 12.9464 73.0806 13.2913 74.1409 15.016C75.2675 16.7406 75.4663 16.8096 76.5265 16.1887C77.8519 15.3609 79.5086 14.809 80.9002 14.809C83.816 14.809 85.539 16.1887 85.539 18.4653V19.914C84.1473 19.2931 82.4244 18.9482 80.5689 18.9482C75.5988 18.9482 72.3517 21.7077 72.3517 25.8468C72.3517 29.7101 75.2675 32.3316 79.5749 32.3316C81.828 32.3316 84.0811 31.3658 85.6052 29.5721L85.539 30.8829C85.4727 31.5727 85.9366 32.0556 86.5992 32.0556H89.4488C90.0452 32.0556 90.509 31.6417 90.509 30.9518ZM80.1711 28.1923C78.3819 28.1923 77.1891 27.2265 77.1891 25.7778C77.1891 23.9842 78.9783 22.6044 81.629 22.6044C82.8881 22.6044 84.346 22.8114 85.4725 23.2943V25.2259C84.346 27.0886 82.358 28.1923 80.1711 28.1923Z" fill="#AEC6CE"/>
<path d="M110.191 11.7046C111.251 12.3255 111.251 12.6704 110.125 14.5331C109.064 16.2577 108.865 16.3957 107.673 15.7748C106.811 15.2919 105.353 14.878 104.227 14.878C100.582 14.878 98.1963 17.3615 98.1963 21.1558C98.1963 25.088 100.582 27.7095 104.227 27.7095C105.486 27.7095 107.076 27.2266 108.07 26.6057C109.131 25.9848 109.329 25.9848 110.456 27.7095C111.45 29.2962 111.45 29.6411 110.522 30.331C108.932 31.5037 106.347 32.4006 104.094 32.4006C97.4011 32.4006 92.8949 27.9164 92.8949 21.2247C92.8949 14.5331 97.4011 10.1179 104.16 10.1179C106.281 10.0489 108.667 10.7388 110.191 11.7046" fill="#AEC6CE"/>
<path d="M132.125 29.365C132.987 30.4688 132.655 30.8827 130.535 31.6415C128.414 32.4694 128.083 32.4004 127.354 31.3656L121.324 23.0182L118.607 25.7087V31.1586C118.607 31.5725 118.143 32.0554 117.546 32.0554H114.631C113.968 32.0554 113.57 31.5725 113.57 31.1586V2.52924C113.57 1.08052 113.968 1.01154 116.088 1.01154C118.54 1.01154 118.607 1.2185 118.607 2.52924V18.81L126.824 10.6007C127.752 9.70383 128.215 9.77282 129.872 10.8766C131.661 12.0494 131.794 12.3943 130.932 13.2911L124.836 19.4999L132.125 29.365" fill="#AEC6CE"/>
</svg>
