<svg width="44" height="44" viewBox="0 0 44 44" fill="none" xmlns="http://www.w3.org/2000/svg">
<path d="M0 22C0 9.84974 9.84974 0 22 0C34.1503 0 44 9.84974 44 22C44 34.1503 34.1503 44 22 44C9.84974 44 0 34.1503 0 22Z" fill="#FEF6E6"/>
<path d="M15.2857 29.0786C15.034 29.0761 14.7913 28.985 14.6 28.8214C13.5008 27.9563 12.6075 26.8577 11.9849 25.6051C11.3623 24.3525 11.0259 22.9772 11 21.5786C11.0259 20.18 11.3623 18.8046 11.9849 17.552C12.6075 16.2994 13.5008 15.2008 14.6 14.3357C14.7037 14.2261 14.8294 14.1395 14.9689 14.0819C15.1084 14.0242 15.2584 13.9966 15.4093 14.0009C15.5602 14.0053 15.7084 14.0415 15.8443 14.1071C15.9802 14.1727 16.1008 14.2663 16.198 14.3818C16.2952 14.4972 16.3669 14.6319 16.4085 14.777C16.45 14.9221 16.4604 15.0743 16.4391 15.2238C16.4177 15.3732 16.3649 15.5164 16.2844 15.644C16.2038 15.7716 16.0971 15.8807 15.9714 15.9643C15.1163 16.6347 14.4195 17.4854 13.9306 18.4558C13.4418 19.4262 13.1728 20.4924 13.1429 21.5786C13.1728 22.6647 13.4418 23.731 13.9306 24.7014C14.4195 25.6717 15.1163 26.5224 15.9714 27.1929C16.1874 27.3742 16.3231 27.6334 16.3492 27.9142C16.3753 28.1951 16.2896 28.4748 16.1107 28.6929C16.01 28.8138 15.8838 28.9111 15.7412 28.9777C15.5986 29.0444 15.4431 29.0788 15.2857 29.0786ZM26.5357 26.9357C26.3783 26.936 26.2228 26.9015 26.0802 26.8349C25.9376 26.7682 25.8115 26.6709 25.7107 26.55C25.5318 26.332 25.4462 26.0522 25.4722 25.7714C25.4983 25.4906 25.634 25.2314 25.85 25.05C26.3795 24.6356 26.8113 24.1098 27.115 23.5099C27.4186 22.91 27.5867 22.2506 27.6071 21.5786C27.5867 20.9065 27.4186 20.2472 27.115 19.6473C26.8113 19.0474 26.3795 18.5216 25.85 18.1071C25.7243 18.0236 25.6177 17.9145 25.5371 17.7868C25.4565 17.6592 25.4038 17.516 25.3824 17.3666C25.361 17.2172 25.3714 17.065 25.413 16.9199C25.4545 16.7748 25.5262 16.6401 25.6234 16.5246C25.7207 16.4092 25.8412 16.3156 25.9771 16.2499C26.113 16.1843 26.2613 16.1481 26.4121 16.1438C26.563 16.1394 26.7131 16.167 26.8525 16.2247C26.992 16.2824 27.1177 16.3689 27.2214 16.4786C27.9945 17.0882 28.6224 17.862 29.0597 18.744C29.497 19.626 29.7328 20.5942 29.75 21.5786C29.7328 22.5629 29.497 23.5311 29.0597 24.4131C28.6224 25.2952 27.9945 26.069 27.2214 26.6786C27.0302 26.8422 26.7874 26.9332 26.5357 26.9357Z" fill="#FFA412"/>
<path d="M17.9643 26.9357C17.7126 26.9332 17.4698 26.8422 17.2786 26.6786C16.5055 26.069 15.8776 25.2952 15.4403 24.4131C15.003 23.5311 14.7672 22.5629 14.75 21.5786C14.7672 20.5942 15.003 19.626 15.4403 18.744C15.8776 17.862 16.5055 17.0882 17.2786 16.4786C17.3823 16.3689 17.508 16.2824 17.6475 16.2247C17.7869 16.167 17.937 16.1394 18.0879 16.1438C18.2387 16.1481 18.387 16.1843 18.5229 16.2499C18.6588 16.3156 18.7793 16.4092 18.8766 16.5246C18.9738 16.6401 19.0455 16.7748 19.087 16.9199C19.1286 17.065 19.139 17.2172 19.1176 17.3666C19.0962 17.516 19.0435 17.6592 18.9629 17.7868C18.8823 17.9145 18.7757 18.0236 18.65 18.1071C18.1205 18.5216 17.6887 19.0474 17.385 19.6473C17.0814 20.2472 16.9133 20.9065 16.8929 21.5786C16.9133 22.2506 17.0814 22.91 17.385 23.5099C17.6887 24.1098 18.1205 24.6356 18.65 25.05C18.866 25.2314 19.0017 25.4906 19.0278 25.7714C19.0538 26.0522 18.9682 26.332 18.7893 26.55C18.6885 26.6709 18.5624 26.7682 18.4198 26.8349C18.2772 26.9015 18.1217 26.936 17.9643 26.9357ZM29.2143 29.0786C29.0569 29.0788 28.9014 29.0444 28.7588 28.9777C28.6162 28.9111 28.49 28.8138 28.3893 28.6929C28.2104 28.4748 28.1247 28.1951 28.1508 27.9142C28.1769 27.6334 28.3126 27.3742 28.5286 27.1929C29.3837 26.5224 30.0805 25.6717 30.5693 24.7014C31.0582 23.731 31.3272 22.6647 31.3571 21.5786C31.3272 20.4924 31.0582 19.4262 30.5693 18.4558C30.0805 17.4854 29.3837 16.6347 28.5286 15.9643C28.4029 15.8807 28.2962 15.7716 28.2156 15.644C28.1351 15.5164 28.0823 15.3732 28.0609 15.2238C28.0396 15.0743 28.05 14.9221 28.0915 14.777C28.1331 14.6319 28.2048 14.4972 28.302 14.3818C28.3992 14.2663 28.5198 14.1727 28.6557 14.1071C28.7916 14.0415 28.9398 14.0053 29.0907 14.0009C29.2416 13.9966 29.3916 14.0242 29.5311 14.0819C29.6706 14.1395 29.7963 14.2261 29.9 14.3357C30.9992 15.2008 31.8925 16.2994 32.5151 17.552C33.1377 18.8046 33.4741 20.18 33.5 21.5786C33.4741 22.9772 33.1377 24.3525 32.5151 25.6051C31.8925 26.8577 30.9992 27.9563 29.9 28.8214C29.7087 28.985 29.466 29.0761 29.2143 29.0786Z" fill="#FFA412"/>
<path d="M22.5 23.0005C22.2033 23.0005 21.9133 22.9125 21.6666 22.7477C21.42 22.5829 21.2277 22.3486 21.1142 22.0745C21.0007 21.8004 20.9709 21.4988 21.0288 21.2079C21.0867 20.9169 21.2296 20.6496 21.4393 20.4398C21.6491 20.2301 21.9164 20.0872 22.2074 20.0293C22.4983 19.9714 22.7999 20.0011 23.074 20.1147C23.3481 20.2282 23.5824 20.4205 23.7472 20.6671C23.912 20.9138 24 21.2038 24 21.5005C24 21.8983 23.842 22.2798 23.5607 22.5611C23.2794 22.8425 22.8978 23.0005 22.5 23.0005Z" fill="#FFA412"/>
</svg>
