<svg width="193" height="5" viewBox="0 0 193 5" fill="none" xmlns="http://www.w3.org/2000/svg">
<path fill-rule="evenodd" clip-rule="evenodd" d="M0 2.4C0 1.07452 1.07452 0 2.4 0H190.6C191.925 0 193 1.07452 193 2.4V2.4C193 3.72548 191.925 4.8 190.6 4.8H2.39999C1.07451 4.8 0 3.72548 0 2.4V2.4Z" fill="#EAF3FB"/>
<path fill-rule="evenodd" clip-rule="evenodd" d="M0 2.4C0 1.07452 1.07452 0 2.4 0H95.4C96.7255 0 97.8 1.07452 97.8 2.4V2.4C97.8 3.72548 96.7255 4.8 95.4 4.8H2.4C1.07452 4.8 0 3.72548 0 2.4V2.4Z" fill="#2F80ED"/>
</svg>
