<svg width="370" height="575" viewBox="0 0 370 575" fill="none" xmlns="http://www.w3.org/2000/svg">
<mask id="mask0_2_692" style="mask-type:alpha" maskUnits="userSpaceOnUse" x="-1072" y="-14" width="1442" height="920">
<rect x="-1071.56" y="-13.5596" width="1441.37" height="919.233" fill="white"/>
</mask>
<g mask="url(#mask0_2_692)">
<path opacity="0.05" fill-rule="evenodd" clip-rule="evenodd" d="M168.491 454.581C115.568 415.798 19.8244 421.618 2.30198 358.388C-15.0951 295.611 71.0278 252.49 95.7887 192.236C120.351 132.465 90.4372 43.5094 145.559 9.78241C200.785 -24.0079 266.883 39.9176 331.085 48.2679C389.548 55.8717 455.624 21.8336 503.433 56.3287C551.633 91.1051 556.717 159.749 566.784 218.326C576.152 272.84 577.209 327.77 559.06 380.021C540.149 434.469 509.251 484.576 462.566 518.381C413.571 553.858 352.979 584.874 293.863 572.049C236.493 559.602 215.842 489.281 168.491 454.581Z" fill="#26A6B3"/>
</g>
</svg>
