<svg width="16" height="16" viewBox="0 0 16 16" fill="none" xmlns="http://www.w3.org/2000/svg">
<g clip-path="url(#clip0_2_529)">
<path d="M14.6667 7.38668V8.00001C14.6658 9.43763 14.2003 10.8365 13.3395 11.9879C12.4788 13.1393 11.2688 13.9817 9.89022 14.3893C8.5116 14.7969 7.03815 14.7479 5.68963 14.2497C4.3411 13.7515 3.18975 12.8307 2.40729 11.6247C1.62482 10.4187 1.25317 8.99205 1.34776 7.55755C1.44235 6.12306 1.99812 4.75756 2.93217 3.66473C3.86621 2.57189 5.1285 1.81027 6.53077 1.49344C7.93304 1.17662 9.40016 1.32157 10.7133 1.90668" stroke="#2F80ED" stroke-width="2" stroke-linecap="round" stroke-linejoin="round"/>
<path d="M14.6667 2.66644L8 9.33978L6 7.33978" stroke="#2F80ED" stroke-width="2" stroke-linecap="round" stroke-linejoin="round"/>
</g>
<defs>
<clipPath id="clip0_2_529">
<rect width="16" height="16" fill="white"/>
</clipPath>
</defs>
</svg>
