<svg width="16" height="16" viewBox="0 0 16 16" fill="none" xmlns="http://www.w3.org/2000/svg">
<path fill-rule="evenodd" clip-rule="evenodd" d="M8 14.75C6.20979 14.75 4.4929 14.0388 3.22703 12.773C1.96116 11.5071 1.25 9.79021 1.25 8C1.25 6.20979 1.96116 4.4929 3.22703 3.22703C4.4929 1.96116 6.20979 1.25 8 1.25C9.79021 1.25 11.5071 1.96116 12.773 3.22703C14.0388 4.4929 14.75 6.20979 14.75 8C14.75 9.79021 14.0388 11.5071 12.773 12.773C11.5071 14.0388 9.79021 14.75 8 14.75ZM8 16C5.87827 16 3.84344 15.1571 2.34314 13.6569C0.842854 12.1566 -4.42435e-07 10.1217 -3.49691e-07 8C-2.56947e-07 5.87827 0.842854 3.84344 2.34315 2.34315C3.84344 0.842854 5.87827 -4.42435e-07 8 -3.49691e-07C10.1217 -2.56947e-07 12.1566 0.842855 13.6569 2.34315C15.1571 3.84344 16 5.87827 16 8C16 10.1217 15.1571 12.1566 13.6569 13.6569C12.1566 15.1571 10.1217 16 8 16ZM8 5C7.70729 5.29271 7.70729 5.76729 8 6.06L9.19 7.25L4.75 7.25C4.33579 7.25 4 7.58579 4 8V8C4 8.41421 4.33579 8.75 4.75 8.75L9.19 8.75L8 9.94C7.70729 10.2327 7.70729 10.7073 8 11V11C8.29271 11.2927 8.76729 11.2927 9.06 11L11.53 8.53C11.6705 8.38937 11.7493 8.19875 11.7493 8C11.7493 7.80125 11.6705 7.61062 11.53 7.47L9.06 5C8.76729 4.70729 8.29271 4.70729 8 5V5Z" fill="#006D77"/>
</svg>
