<svg width="17" height="17" viewBox="0 0 17 17" fill="none" xmlns="http://www.w3.org/2000/svg">
<circle cx="8.5" cy="8.5" r="8.5" fill="#01D2A1"/>
<path d="M12.7865 5.30215C12.7229 5.23808 12.6473 5.18723 12.5641 5.15253C12.4808 5.11783 12.3914 5.09996 12.3012 5.09996C12.2109 5.09996 12.1216 5.11783 12.0383 5.15253C11.955 5.18723 11.8794 5.23808 11.8158 5.30215L6.72338 10.4015L4.58386 8.2551C4.51788 8.19137 4.44 8.14125 4.35465 8.10762C4.26931 8.07399 4.17817 8.05749 4.08645 8.05908C3.99473 8.06067 3.90423 8.0803 3.8201 8.11687C3.73596 8.15343 3.65986 8.20621 3.59613 8.27219C3.53239 8.33817 3.48228 8.41605 3.44865 8.5014C3.41501 8.58674 3.39852 8.67788 3.4001 8.7696C3.40169 8.86132 3.42133 8.95183 3.45789 9.03596C3.49446 9.12009 3.54724 9.19619 3.61322 9.25992L6.23806 11.8848C6.3016 11.9488 6.37721 11.9997 6.4605 12.0344C6.5438 12.0691 6.63314 12.087 6.72338 12.087C6.81362 12.087 6.90296 12.0691 6.98626 12.0344C7.06956 11.9997 7.14516 11.9488 7.2087 11.8848L12.7865 6.30698C12.8559 6.24297 12.9113 6.16528 12.9491 6.07881C12.987 5.99234 13.0066 5.89896 13.0066 5.80456C13.0066 5.71016 12.987 5.61679 12.9491 5.53032C12.9113 5.44385 12.8559 5.36616 12.7865 5.30215V5.30215Z" fill="white"/>
</svg>
