<svg width="41" height="40" viewBox="0 0 41 40" fill="none" xmlns="http://www.w3.org/2000/svg">
<path d="M35.177 4.84544C28.9909 -1.61498 17.8604 -1.61537 11.6746 4.84559C6.3447 10.0061 5.27326 18.7966 9.11551 25.0946L1.19149 33.0358C-0.397163 34.6279 -0.397163 37.2186 1.19149 38.8107C2.70976 40.3964 5.44288 40.3964 6.96108 38.8107L12.1113 33.6493L14.8604 30.8942C21.1573 34.8167 29.9977 33.765 35.1769 28.3914C41.622 22.1942 41.6223 11.0427 35.177 4.84544V4.84544ZM5.30032 37.1535C4.65563 37.8268 3.49685 37.8268 2.85209 37.1535C2.1751 36.4751 2.1751 35.3712 2.85209 34.6929L7.17378 30.3618L9.62554 32.8188L5.30032 37.1535ZM11.2828 31.1582L8.83102 28.7011L10.4752 27.0533C11.195 27.9491 12.0283 28.791 12.9178 29.5196L11.2828 31.1582ZM33.5162 26.7344C28.8634 31.5747 20.7846 32.2958 15.3494 28.4159C15.3473 28.4146 15.3454 28.4131 15.3434 28.4118C3.89396 20.417 9.45044 2.38617 23.4259 2.31368C36.0559 2.26614 42.4539 17.8246 33.5162 26.7344Z" fill="#FF1181"/>
<path d="M34.9544 16.6137C34.8711 10.0672 29.6465 5.07382 23.4257 5.0818C16.6583 5.09376 11.7164 10.7592 11.9217 16.9367C12.0955 23.3345 17.3705 28.1746 23.4257 28.1552C30.1094 28.1242 34.8936 22.7303 34.9544 16.6137V16.6137ZM29.9078 23.1181C28.4543 24.5748 26.5987 25.4818 24.5921 25.7356L24.5963 21.8363C24.597 21.1885 24.0724 20.6628 23.4246 20.6621H23.4233C22.776 20.6621 22.251 21.1864 22.2503 21.8338L22.246 25.7338C18.2276 25.3074 14.7567 21.7628 14.3388 17.8089L18.1995 17.8048C19.755 17.7413 19.7526 15.52 18.1983 15.4587H18.197L14.3341 15.4629C14.7386 11.4879 18.2262 7.91986 22.2657 7.50039L22.2615 11.4158C22.2608 12.0636 22.7853 12.5893 23.4331 12.59H23.4345C24.0817 12.59 24.6068 12.0657 24.6075 11.4183L24.6117 7.50391C28.633 7.93324 32.1032 11.4857 32.5147 15.4432L28.6365 15.4473C27.0811 15.5108 27.0835 17.7321 28.6379 17.7934H28.6392L32.5153 17.7892C32.2676 19.7391 31.3988 21.6239 29.9078 23.1181V23.1181Z" fill="#FF1181"/>
<path d="M23.4303 15.4551C21.8783 15.5177 21.8734 17.7366 23.4278 17.7971C24.9797 17.7346 24.9846 15.5156 23.4303 15.4551Z" fill="#FF1181"/>
</svg>
