<svg width="41" height="40" viewBox="0 0 41 40" fill="none" xmlns="http://www.w3.org/2000/svg">
<path d="M38.8508 8.62117C40.0379 4.36134 40.0397 1.29492 40.0391 1.16648C40.0379 0.847845 39.9068 0.54342 39.6761 0.323554C39.4455 0.103609 39.1354 -0.0126483 38.8169 0.00109334C29.2118 0.405223 20.0995 4.96254 14.2541 12.6259L7.47122 12.2961C7.14142 12.2807 6.81982 12.4042 6.58621 12.6378L0.343043 18.881C0.0399462 19.1841 -0.0733444 19.6286 0.0476759 20.0398C0.168696 20.451 0.504742 20.7633 0.923629 20.8538L8.15244 22.4169C7.16515 24.2762 6.546 25.5817 6.4751 25.7321C6.26445 26.1791 6.35697 26.7102 6.70637 27.0596L7.22894 27.5822C6.66272 27.7802 6.1314 28.1051 5.67957 28.5569C5.32752 28.9089 5.04511 29.3167 4.83969 29.7695L0.194774 38.2097C-0.0553085 38.6642 0.0233157 39.2291 0.388172 39.5979C0.613817 39.8261 0.915587 39.9456 1.22126 39.9456C1.40974 39.9456 1.59978 39.9001 1.77421 39.8066L10.311 35.2302C10.4436 35.1697 10.5719 35.1031 10.6932 35.0316C10.7057 35.0245 10.7179 35.0171 10.73 35.0096C11.0154 34.8372 11.2798 34.6301 11.5163 34.3937C11.968 33.9419 12.2929 33.4105 12.4911 32.8443L13.0794 33.4326C13.4465 33.8002 14.0111 33.8796 14.4629 33.6356C14.6166 33.5528 15.8518 32.8854 17.5941 31.8913L19.1483 39.0785C19.3314 39.9733 20.4796 40.3142 21.1211 39.6591L27.3644 33.4159C27.598 33.1823 27.7221 32.8609 27.706 32.5309L27.3766 25.7552C28.5896 24.8781 29.6437 24.0325 30.3921 23.2841C34.9094 18.6813 37.2896 13.9555 38.8508 8.62117V8.62117ZM36.5725 8.07088C36.3231 8.95769 36.0033 9.94451 35.596 10.9963L29.0117 4.41193C31.7525 3.34157 34.6385 2.67455 37.6267 2.42353C37.5199 3.6417 37.2508 5.65985 36.5725 8.07088ZM3.51815 19.0185L7.87566 14.6609L12.629 14.892C11.3998 16.7065 10.2708 18.5925 9.32423 20.2739L3.51815 19.0185ZM10.6881 27.7289L8.95258 25.9934C9.23148 25.4293 9.66285 24.5744 10.2106 23.5433L12.5422 25.8748L10.6881 27.7289ZM9.86 32.7374C9.75491 32.8424 9.6374 32.9341 9.5106 33.0097C9.50857 33.0109 9.50647 33.0121 9.50444 33.0133C9.44783 33.0468 9.38584 33.0784 9.32025 33.1074C9.29316 33.1194 9.26653 33.1324 9.24038 33.1464L4.15456 35.8728L6.91546 30.8563C6.93264 30.825 6.94841 30.793 6.96262 30.7604C7.0521 30.5556 7.17764 30.3716 7.33583 30.2134C8.03174 29.5175 9.16402 29.5176 9.85992 30.2134C10.5558 30.9092 10.5558 32.0415 9.86 32.7374V32.7374ZM14.115 31.1558L12.3444 29.3851L14.1985 27.531L16.4889 29.8215C15.4997 30.3869 14.6714 30.8487 14.115 31.1558V31.1558ZM25.3412 32.1264L20.9836 36.4839L19.7236 30.6569C21.4251 29.6548 23.3301 28.4924 25.1074 27.3182L25.3412 32.1264ZM28.7357 21.6279C26.7507 23.6129 22.2191 26.4642 18.5853 28.6054L15.8546 25.8748L19.7032 22.0262C20.1606 21.5689 20.1606 20.8274 19.7032 20.37C19.2459 19.9126 18.5044 19.9126 18.047 20.37L14.1984 24.2186L11.382 21.4022C11.4849 21.2195 11.5897 21.0348 11.6967 20.8479C14.1173 16.6205 16.4509 13.3319 18.4453 11.3375C20.8793 8.90358 23.6573 6.91604 26.7095 5.42233L34.5954 13.3082C33.3034 16.0006 31.435 18.9285 28.7357 21.6279V21.6279Z" fill="#01D2A1"/>
<path d="M28.6577 11.4153C25.6022 8.34631 20.2796 10.5498 20.2974 14.8784C20.2431 17.5107 22.5624 19.8301 25.1948 19.7756C29.523 19.7935 31.7273 14.4705 28.6577 11.4153ZM27.0015 16.685C26.0503 17.6761 24.3392 17.6762 23.3881 16.6849C22.3969 15.7339 22.3969 14.0226 23.3881 13.0716C24.3843 12.0755 26.0053 12.0755 27.0015 13.0716C27.9977 14.0678 27.9977 15.6888 27.0015 16.685Z" fill="#01D2A1"/>
</svg>
