<svg width="17" height="17" viewBox="0 0 17 17" fill="none" xmlns="http://www.w3.org/2000/svg">
<circle cx="8.49999" cy="8.49999" r="8.49999" fill="#01D2A1"/>
<path d="M12.7865 5.30215C12.723 5.23808 12.6474 5.18723 12.5641 5.15252C12.4808 5.11782 12.3914 5.09995 12.3012 5.09995C12.2109 5.09995 12.1216 5.11782 12.0383 5.15252C11.955 5.18723 11.8794 5.23808 11.8159 5.30215L6.72339 10.4014L4.58387 8.25509C4.51789 8.19136 4.44001 8.14125 4.35466 8.10761C4.26932 8.07398 4.17819 8.05749 4.08647 8.05907C3.99475 8.06066 3.90424 8.0803 3.82011 8.11686C3.73598 8.15343 3.65987 8.20621 3.59614 8.27218C3.53241 8.33816 3.48229 8.41605 3.44866 8.50139C3.41503 8.58674 3.39853 8.67787 3.40012 8.76959C3.4017 8.86131 3.42134 8.95182 3.45791 9.03595C3.49447 9.12008 3.54725 9.19618 3.61323 9.25992L6.23807 11.8848C6.30161 11.9488 6.37722 11.9997 6.46051 12.0344C6.54381 12.0691 6.63315 12.0869 6.72339 12.0869C6.81363 12.0869 6.90297 12.0691 6.98627 12.0344C7.06957 11.9997 7.14517 11.9488 7.20871 11.8848L12.7865 6.30697C12.8559 6.24296 12.9113 6.16527 12.9491 6.0788C12.987 5.99234 13.0066 5.89896 13.0066 5.80456C13.0066 5.71016 12.987 5.61678 12.9491 5.53031C12.9113 5.44384 12.8559 5.36616 12.7865 5.30215V5.30215Z" fill="white"/>
</svg>
