<svg width="79" height="39" viewBox="0 0 79 39" fill="none" xmlns="http://www.w3.org/2000/svg">
<g clip-path="url(#clip0_2_478)">
<rect x="0.5" y="0.5" width="78" height="37.295" rx="3.5" fill="#FAAD13" fill-opacity="0.06" stroke="#FAAD13" stroke-dasharray="4 4"/>
<path d="M38.6104 15.0348L37.0754 18.1756L33.604 18.6715C32.99 18.766 32.7539 19.5217 33.2026 19.9703L35.6821 22.4027L35.0918 25.8268C34.9973 26.4408 35.6585 26.9131 36.2017 26.6297L39.2952 25.0003L42.3652 26.6297C42.9083 26.9131 43.5695 26.4408 43.4751 25.8268L42.8847 22.4027L45.3642 19.9703C45.8129 19.5217 45.5768 18.766 44.9628 18.6715L41.515 18.1756L39.9564 15.0348C39.6967 14.4917 38.8938 14.4681 38.6104 15.0348Z" fill="#FAAD13"/>
</g>
<defs>
<clipPath id="clip0_2_478">
<rect width="78.4065" height="38.0073" fill="white" transform="scale(1.00757)"/>
</clipPath>
</defs>
</svg>
