<svg width="79" height="39" viewBox="0 0 79 39" fill="none" xmlns="http://www.w3.org/2000/svg">
<g clip-path="url(#clip0_2_483)">
<rect x="0.5" y="0.5" width="78" height="37.295" rx="3.5" fill="#00B8D9" fill-opacity="0.06" stroke="#00B8D9" stroke-dasharray="4 4"/>
<path d="M43.3255 19.5217H39.9249V16.1211C39.9249 15.7197 39.5707 15.3654 39.1693 15.3654H38.4136C37.9885 15.3654 37.6579 15.7197 37.6579 16.1211V19.5217H34.2574C33.8323 19.5217 33.5017 19.8759 33.5017 20.2773V21.033C33.5017 21.4581 33.8323 21.7887 34.2574 21.7887H37.6579V25.1892C37.6579 25.6143 37.9885 25.9449 38.4136 25.9449H39.1693C39.5707 25.9449 39.9249 25.6143 39.9249 25.1892V21.7887H43.3255C43.7269 21.7887 44.0812 21.4581 44.0812 21.033V20.2773C44.0812 19.8759 43.7269 19.5217 43.3255 19.5217Z" fill="#00B8D9"/>
</g>
<defs>
<clipPath id="clip0_2_483">
<rect width="78.4065" height="38.0073" fill="white" transform="scale(1.00757)"/>
</clipPath>
</defs>
</svg>
