<svg width="17" height="17" viewBox="0 0 17 17" fill="none" xmlns="http://www.w3.org/2000/svg">
<g opacity="0.9">
<circle cx="8.5" cy="8.5" r="8.5" fill="#EB5757"/>
<path d="M11.7089 11.6183C11.9735 11.8828 11.9735 12.2943 11.7089 12.5589C11.5767 12.6912 11.415 12.75 11.2386 12.75C11.0623 12.75 10.9006 12.6912 10.7683 12.5589L8.07868 9.86927L5.38905 12.5589C5.25678 12.6912 5.09511 12.75 4.91874 12.75C4.74237 12.75 4.5807 12.6912 4.44842 12.5589C4.18387 12.2943 4.18387 11.8828 4.44842 11.6183L7.13804 8.92863L4.44842 6.23901C4.18387 5.97446 4.18387 5.56293 4.44842 5.29837C4.71297 5.03382 5.1245 5.03382 5.38905 5.29837L8.07868 7.988L10.7683 5.29837C11.0329 5.03382 11.4444 5.03382 11.7089 5.29837C11.9735 5.56293 11.9735 5.97446 11.7089 6.23901L9.01931 8.92863L11.7089 11.6183Z" fill="white"/>
</g>
</svg>
