<svg width="16" height="16" viewBox="0 0 16 16" fill="none" xmlns="http://www.w3.org/2000/svg">
<path d="M8.00005 2.65226L7.83631 2.50826C5.93338 0.838923 2.98458 0.96159 1.23898 2.78452C-0.519954 4.62026 -0.389821 7.48212 1.52698 9.16319L7.61338 14.5029C7.72037 14.5967 7.85778 14.6484 8.00005 14.6484C8.14231 14.6484 8.27972 14.5967 8.38671 14.5029L14.4731 9.16319C16.3899 7.48212 16.52 4.62026 14.7611 2.78452C13.0155 0.96159 10.0667 0.838923 8.16378 2.50879L8.00005 2.65279V2.65226ZM2.23045 8.36212C0.769113 7.08052 0.670979 4.91946 2.00911 3.52266C3.35898 2.11306 5.65818 2.01759 7.13285 3.31092L8.00005 4.07146L8.86725 3.31039C10.3419 2.01706 12.6411 2.11252 13.991 3.52212C15.3291 4.91892 15.2304 7.07999 13.7696 8.36159L8.00005 13.4229L2.23045 8.36212Z" fill="#5B5B5B"/>
</svg>
