<svg width="17" height="17" viewBox="0 0 17 17" fill="none" xmlns="http://www.w3.org/2000/svg">
<g opacity="0.9">
<circle cx="8.49999" cy="8.49999" r="8.49999" fill="#EB5757"/>
<path d="M11.7089 11.6182C11.9735 11.8828 11.9735 12.2943 11.7089 12.5589C11.5766 12.6912 11.415 12.7499 11.2386 12.7499C11.0622 12.7499 10.9006 12.6912 10.7683 12.5589L8.07866 9.86926L5.38903 12.5589C5.25676 12.6912 5.09508 12.7499 4.91872 12.7499C4.74235 12.7499 4.58068 12.6912 4.4484 12.5589C4.18385 12.2943 4.18385 11.8828 4.4484 11.6182L7.13802 8.92863L4.4484 6.239C4.18385 5.97445 4.18385 5.56292 4.4484 5.29837C4.71295 5.03382 5.12448 5.03382 5.38903 5.29837L8.07866 7.98799L10.7683 5.29837C11.0328 5.03382 11.4444 5.03382 11.7089 5.29837C11.9735 5.56292 11.9735 5.97445 11.7089 6.239L9.01929 8.92863L11.7089 11.6182Z" fill="white"/>
</g>
</svg>
