<svg width="157" height="31" viewBox="0 0 157 31" fill="none" xmlns="http://www.w3.org/2000/svg">
<path d="M156.548 3.47783C159.009 7.61187 150.777 9.20463 147.505 11.8461C141.998 16.2911 134.762 19.4148 126.965 21.9885C110.509 27.4269 92.6045 30.3925 73.0142 30.2001C59.0314 30.0618 45.2733 27.9984 32.1844 22.8746C20.7454 18.3958 10.9214 12.6137 3.02285 5.40725C2.20693 4.66208 1.50166 3.8647 0.853253 3.06109C0.458673 2.57011 0.116884 2.01016 0.0508965 1.49583C-0.00918744 1.0054 -0.125105 0.274088 0.468486 0.0554215C1.06208 -0.163245 2.04957 0.316103 2.67623 0.613223C3.48069 0.994082 4.14072 1.53211 4.81784 2.03074C8.30149 4.60004 11.7045 7.22357 15.2621 9.74722C25.5923 17.0779 37.9026 21.561 51.8935 23.6265C64.4365 25.4811 76.6553 25.6462 88.5769 24.3422C103.016 22.7631 116.489 19.8867 128.31 14.7199C135.662 11.506 146.407 2.56816 146.407 2.56816C146.407 2.56816 146.845 2.08036 147.165 1.81144C150.015 -0.581499 154.644 0.280287 156.548 3.47783Z" fill="#2F80ED"/>
</svg>
