<svg width="41" height="40" viewBox="0 0 41 40" fill="none" xmlns="http://www.w3.org/2000/svg">
<path d="M20.0298 1.12398e-07C7.50605 0.000469706 1.94872 16.3505 12.5496 23.5386V25.2808C11.1695 26.4544 11.0116 28.6966 12.2338 30.0506C10.3329 32.2057 11.9003 35.6868 14.8002 35.6753H14.845C15.9817 41.4437 24.0803 41.4395 25.2146 35.6753H25.2593C28.1606 35.6863 29.7259 32.2049 27.8257 30.0506C29.0483 28.6962 28.8897 26.454 27.51 25.2808V23.5387C38.1149 16.3468 32.5474 -0.0015652 20.0298 1.12398e-07V1.12398e-07ZM25.2593 26.7738C26.6544 26.8317 26.6534 28.8192 25.2593 28.8766H14.8002C13.4051 28.8186 13.4062 26.8312 14.8002 26.7738H25.2593ZM20.0298 37.6756C18.7412 37.6756 17.6459 36.8359 17.2601 35.6753H22.7996C22.4138 36.8359 21.3183 37.6756 20.0298 37.6756ZM25.2593 33.3273C23.5143 33.3271 16.5057 33.3271 14.8002 33.3273C13.4082 33.2709 13.4032 31.2833 14.8002 31.2246H25.2593C26.6512 31.2809 26.6565 33.2686 25.2593 33.3273ZM25.7142 21.9092C25.3707 22.1236 25.1621 22.5 25.1621 22.905V24.4258H23.3487V19.2112L25.8745 16.7232C26.3364 16.2682 26.3421 15.5248 25.887 15.063C25.432 14.601 24.6886 14.5954 24.2269 15.0505L21.3509 17.8834C21.1269 18.104 21.0008 18.4052 21.0008 18.7197V24.4258H19.0506V18.7197C19.0506 18.4084 18.9269 18.1098 18.7067 17.8896L15.8738 15.0567C15.4154 14.5983 14.672 14.5983 14.2136 15.0567C13.7551 15.5152 13.7551 16.2585 14.2136 16.717L16.7026 19.2061V24.4259H14.8975V22.905C14.8975 22.5001 14.6888 22.1237 14.3454 21.9093C5.06103 16.2845 9.53227 2.35861 20.03 2.34797C30.5278 2.35908 34.9985 16.2857 25.7142 21.9092V21.9092Z" fill="#0D59EF"/>
<path d="M35.6825 8.65175C35.8474 8.65175 36.0151 8.61684 36.1746 8.54296L38.3947 7.51596C38.9832 7.24375 39.2395 6.54601 38.9673 5.95754C38.6951 5.36913 37.9973 5.11258 37.4089 5.38494L35.1888 6.41195C34.0488 6.95863 34.4381 8.64095 35.6825 8.65175Z" fill="#0D59EF"/>
<path d="M38.8918 11.2656H36.4415C34.8838 11.3277 34.885 13.5522 36.4415 13.6136H38.8918C40.4494 13.5516 40.4483 11.3271 38.8918 11.2656Z" fill="#0D59EF"/>
<path d="M38.3599 17.363L36.1399 16.336C34.7002 15.7382 33.7673 17.7577 35.1541 18.467L37.3741 19.494C37.9489 19.7638 38.6596 19.5158 38.9325 18.9214C39.2048 18.3329 38.9484 17.6352 38.3599 17.363Z" fill="#0D59EF"/>
<path d="M3.88496 16.3361L1.66488 17.3631C1.0764 17.6353 0.820079 18.333 1.09229 18.9215C1.3652 19.516 2.07577 19.7639 2.65071 19.4941L4.87079 18.4671C5.45927 18.1949 5.71559 17.4971 5.44338 16.9087C5.17118 16.3202 4.47344 16.0639 3.88496 16.3361Z" fill="#0D59EF"/>
<path d="M3.61813 13.6136C5.17577 13.5515 5.1746 11.3271 3.61813 11.2656H1.16779C-0.389851 11.3277 -0.388676 13.5522 1.16779 13.6136H3.61813Z" fill="#0D59EF"/>
<path d="M4.90551 6.41216L2.68543 5.38515C2.09695 5.11287 1.39921 5.36935 1.127 5.95775C0.854718 6.54622 1.11112 7.24396 1.69959 7.51617L3.91968 8.54317C4.49446 8.81303 5.20519 8.56493 5.47802 7.97058C5.75031 7.38202 5.49391 6.68436 4.90551 6.41216Z" fill="#0D59EF"/>
</svg>
