<svg width="457" height="114" viewBox="0 0 457 114" fill="none" xmlns="http://www.w3.org/2000/svg">
<path opacity="0.12" d="M11.6092 19.0603C5.52941 18.7373 0.338857 23.4041 0.0158322 29.4839C-0.307192 35.5638 4.35963 40.7543 10.4395 41.0774L11.6092 19.0603ZM318.347 74.76L313.395 84.6094L314.067 84.9471L314.779 85.1905L318.347 74.76ZM455.872 15.8791C458.552 10.4123 456.293 3.80798 450.826 1.12793C445.359 -1.55211 438.755 0.70703 436.075 6.17386L455.872 15.8791ZM399.215 102.425L402.784 91.9943L399.215 102.425ZM401.664 101.411L391.765 96.5581L401.664 101.411ZM234.891 33.7555L229.687 24.0369L234.891 33.7555ZM236.737 33.7317L241.689 23.8822L236.737 33.7317ZM152.321 76.9509L157.546 67.2436L152.321 76.9509ZM154.217 76.9529L149.013 67.2344L154.217 76.9529ZM70.7073 33.2398L71.2921 22.2313L70.7073 33.2398ZM71.5509 33.4764L66.326 43.1836L71.5509 33.4764ZM10.4395 41.0774L70.1224 44.2483L71.2921 22.2313L11.6092 19.0603L10.4395 41.0774ZM66.326 43.1836L147.096 86.6581L157.546 67.2436L76.7758 23.7692L66.326 43.1836ZM159.421 86.6714L240.094 43.474L229.687 24.0369L149.013 67.2344L159.421 86.6714ZM231.785 43.5811L313.395 84.6094L323.299 64.9105L241.689 23.8822L231.785 43.5811ZM314.779 85.1905L395.647 112.855L402.784 91.9943L321.915 64.3294L314.779 85.1905ZM411.562 106.263L455.872 15.8791L436.075 6.17386L391.765 96.5581L411.562 106.263ZM395.647 112.855C401.855 114.979 408.674 112.155 411.562 106.263L391.765 96.5581C393.765 92.4793 398.486 90.524 402.784 91.9943L395.647 112.855ZM240.094 43.474C237.507 44.8594 234.407 44.8993 231.785 43.5811L241.689 23.8822C237.901 21.9781 233.424 22.0358 229.687 24.0369L240.094 43.474ZM147.096 86.6581C150.942 88.7283 155.57 88.7334 159.421 86.6714L149.013 67.2344C151.679 65.8069 154.883 65.8104 157.546 67.2436L147.096 86.6581ZM70.1224 44.2483C68.7939 44.1778 67.4974 43.8142 66.326 43.1836L76.7758 23.7692C75.0837 22.8584 73.2111 22.3332 71.2921 22.2313L70.1224 44.2483Z" fill="#3E8FD8"/>
<path d="M10.6145 28.0665C9.50865 28.0162 8.57135 28.8718 8.52097 29.9776C8.47059 31.0835 9.32621 32.0208 10.4321 32.0711L10.6145 28.0665ZM69.6523 32.7625L70.5934 30.9928L70.1946 30.7808L69.7435 30.7602L69.6523 32.7625ZM152.767 76.9598L151.826 78.7295L152.77 79.2316L153.713 78.7268L152.767 76.9598ZM235.306 32.7633L236.207 30.9725L235.277 30.5053L234.36 30.9963L235.306 32.7633ZM317.846 74.2589L316.946 76.0497L317.068 76.1111L317.197 76.1553L317.846 74.2589ZM400.385 102.495L399.736 104.392L401.419 104.967L402.191 103.366L400.385 102.495ZM446.777 10.8948C447.258 9.89771 446.839 8.69963 445.842 8.21885C444.845 7.73807 443.647 8.15666 443.166 9.15379L446.777 10.8948ZM10.4321 32.0711L69.5611 34.7648L69.7435 30.7602L10.6145 28.0665L10.4321 32.0711ZM68.7112 34.5323L151.826 78.7295L153.708 75.19L70.5934 30.9928L68.7112 34.5323ZM153.713 78.7268L236.253 34.5303L234.36 30.9963L151.821 75.1928L153.713 78.7268ZM234.406 34.5541L316.946 76.0497L318.746 72.4681L236.207 30.9725L234.406 34.5541ZM317.197 76.1553L399.736 104.392L401.034 100.599L318.495 72.3624L317.197 76.1553ZM402.191 103.366L446.777 10.8948L443.166 9.15379L398.58 101.625L402.191 103.366Z" fill="#2F80ED"/>
<path fill-rule="evenodd" clip-rule="evenodd" d="M11.0244 36.0812C7.70341 36.0812 5.01124 33.389 5.01124 30.0681C5.01124 26.7471 7.70341 24.0549 11.0244 24.0549C14.3453 24.0549 17.0375 26.7471 17.0375 30.0681C17.0375 33.389 14.3453 36.0812 11.0244 36.0812Z" fill="white" stroke="#2F80ED"/>
<path fill-rule="evenodd" clip-rule="evenodd" d="M69.1512 39.0877C65.8302 39.0877 63.1381 36.3956 63.1381 33.0746C63.1381 29.7537 65.8302 27.0615 69.1512 27.0615C72.4722 27.0615 75.1643 29.7537 75.1643 33.0746C75.1643 36.3956 72.4722 39.0877 69.1512 39.0877Z" fill="white" stroke="#2F80ED"/>
<path fill-rule="evenodd" clip-rule="evenodd" d="M152.333 83.184C149.012 83.184 146.32 80.4918 146.32 77.1708C146.32 73.8499 149.012 71.1577 152.333 71.1577C155.654 71.1577 158.346 73.8499 158.346 77.1708C158.346 80.4918 155.654 83.184 152.333 83.184Z" fill="white" stroke="#2F80ED"/>
<path fill-rule="evenodd" clip-rule="evenodd" d="M237.519 39.0877C234.198 39.0877 231.505 36.3956 231.505 33.0746C231.505 29.7537 234.198 27.0615 237.519 27.0615C240.84 27.0615 243.532 29.7537 243.532 33.0746C243.532 36.3956 240.84 39.0877 237.519 39.0877Z" fill="white" stroke="#2F80ED"/>
<path fill-rule="evenodd" clip-rule="evenodd" d="M317.694 80.1774C314.373 80.1774 311.68 77.4852 311.68 74.1643C311.68 70.8433 314.373 68.1512 317.694 68.1512C321.015 68.1512 323.707 70.8433 323.707 74.1643C323.707 77.4852 321.015 80.1774 317.694 80.1774Z" fill="white" stroke="#2F80ED"/>
<path fill-rule="evenodd" clip-rule="evenodd" d="M399.873 107.236C396.552 107.236 393.86 104.544 393.86 101.223C393.86 97.9021 396.552 95.21 399.873 95.21C403.194 95.21 405.886 97.9021 405.886 101.223C405.886 104.544 403.194 107.236 399.873 107.236Z" fill="white" stroke="#2F80ED"/>
<path fill-rule="evenodd" clip-rule="evenodd" d="M444.971 16.0374C441.65 16.0374 438.958 13.3453 438.958 10.0243C438.958 6.70336 441.65 4.01119 444.971 4.01119C448.292 4.01119 450.984 6.70336 450.984 10.0243C450.984 13.3453 448.292 16.0374 444.971 16.0374Z" fill="white" stroke="#2F80ED"/>
</svg>
