<svg width="1293" height="486" viewBox="0 0 1293 486" fill="none" xmlns="http://www.w3.org/2000/svg">
<g filter="url(#filter0_d_2_412)">
<rect x="60" y="54" width="1173" height="366" rx="30" fill="#3E8FD8"/>
</g>
<mask id="mask0_2_412" style="mask-type:alpha" maskUnits="userSpaceOnUse" x="60" y="54" width="1173" height="366">
<rect x="60" y="54" width="1173" height="366" rx="30" fill="#006D77"/>
</mask>
<g mask="url(#mask0_2_412)">
<g opacity="0.07">
<path fill-rule="evenodd" clip-rule="evenodd" d="M1042.66 117.617C1072.55 125.688 1100.24 133.309 1129.65 143.326C1177.44 159.607 1242.54 147.3 1268.47 194.549C1293.38 239.931 1260.4 298.216 1241.4 346.962C1224.01 391.587 1199.33 431.251 1164.61 461.064C1128.92 491.701 1087.69 521.818 1042.66 517.604C998.773 513.497 964.221 475.817 934.846 439.564C910.139 409.072 899.723 369.853 890.761 330.144C882.435 293.251 880.848 256.779 885.077 219.045C890.312 172.327 881.283 109.893 918.098 86.197C955.82 61.9168 1000.25 106.164 1042.66 117.617Z" fill="white"/>
<path fill-rule="evenodd" clip-rule="evenodd" d="M433.312 298.259C477.863 295.165 524.622 265.319 563.692 289.174C603.435 313.44 621.734 367.775 628.437 417.396C634.532 462.516 618.027 506.553 598.485 546.74C581.749 581.158 551.551 601.35 525.905 628.251C495.085 660.577 475.486 714.216 433.312 719.987C390.898 725.792 350.713 691.475 322.406 656.099C297.305 624.73 303.121 578.084 288.76 539.337C272.58 495.683 228.144 462.465 233.284 415.636C238.54 367.749 275.759 329.114 314.318 306.488C350.297 285.375 392.653 301.082 433.312 298.259Z" fill="white"/>
<path fill-rule="evenodd" clip-rule="evenodd" d="M247.167 -251.167C290.356 -242.065 325.432 -214.648 363.353 -190.06C406.359 -162.175 458.578 -146.001 483.228 -98.106C510.302 -45.5021 527.287 24.6339 501.254 77.8758C475.394 130.765 404.318 123.512 358.783 156.407C316.856 186.696 296.452 251.532 247.167 261.432C195.601 271.791 140.8 246.492 101.58 208.074C64.1445 171.405 56.4191 113.248 41.8872 60.352C27.6845 8.65462 9.219 -42.4574 18.159 -95.5737C27.9281 -153.616 48.09 -215.987 93.6024 -246.909C138.315 -277.288 195.608 -262.033 247.167 -251.167Z" fill="white"/>
</g>
</g>
<defs>
<filter id="filter0_d_2_412" x="0" y="0" width="1293" height="486" filterUnits="userSpaceOnUse" color-interpolation-filters="sRGB">
<feFlood flood-opacity="0" result="BackgroundImageFix"/>
<feColorMatrix in="SourceAlpha" type="matrix" values="0 0 0 0 0 0 0 0 0 0 0 0 0 0 0 0 0 0 127 0" result="hardAlpha"/>
<feOffset dy="6"/>
<feGaussianBlur stdDeviation="30"/>
<feColorMatrix type="matrix" values="0 0 0 0 0.0175397 0 0 0 0 0.14459 0 0 0 0 0.32246 0 0 0 0.1 0"/>
<feBlend mode="normal" in2="BackgroundImageFix" result="effect1_dropShadow_2_412"/>
<feBlend mode="normal" in="SourceGraphic" in2="effect1_dropShadow_2_412" result="shape"/>
</filter>
</defs>
</svg>
