<svg width="16" height="16" viewBox="0 0 16 16" fill="none" xmlns="http://www.w3.org/2000/svg">
<g clip-path="url(#clip0_2_354)">
<path d="M5.5296 14.0902L4.14827 15.8017C4.05851 15.9088 3.93029 15.9765 3.79118 15.99C3.65207 16.0036 3.5132 15.962 3.40445 15.8742C3.29569 15.7864 3.22574 15.6594 3.20965 15.5206C3.19356 15.3818 3.23261 15.2422 3.3184 15.1318L5.14507 12.8684L5.48853 12.9713C6.28213 13.2097 7.1296 13.3334 8 13.3334C11.8533 13.3334 14.9333 10.9137 14.9333 8.0001C14.9333 5.0865 11.8533 2.66676 8 2.66676C4.14667 2.66676 1.06667 5.0865 1.06667 8.0001C1.06667 9.38676 1.7632 10.6988 3.00267 11.6913C3.11001 11.7807 3.17798 11.9087 3.19195 12.0477C3.20591 12.1868 3.16477 12.3257 3.07736 12.4347C2.98995 12.5437 2.86325 12.6141 2.72452 12.6306C2.58578 12.6472 2.44608 12.6087 2.33547 12.5233C0.8544 11.3382 0 9.7281 0 8.0001C0 4.4337 3.60587 1.6001 8 1.6001C12.3941 1.6001 16 4.4337 16 8.0001C16 11.5665 12.3941 14.4001 8 14.4001C7.15147 14.4001 6.32 14.2945 5.5296 14.0902ZM5.33333 8.53343C5.12116 8.53343 4.91768 8.44915 4.76765 8.29912C4.61762 8.14909 4.53333 7.9456 4.53333 7.73343C4.53333 7.52126 4.61762 7.31777 4.76765 7.16775C4.91768 7.01772 5.12116 6.93343 5.33333 6.93343C5.54551 6.93343 5.74899 7.01772 5.89902 7.16775C6.04905 7.31777 6.13333 7.52126 6.13333 7.73343C6.13333 7.9456 6.04905 8.14909 5.89902 8.29912C5.74899 8.44915 5.54551 8.53343 5.33333 8.53343ZM8 8.53343C7.78783 8.53343 7.58434 8.44915 7.43431 8.29912C7.28429 8.14909 7.2 7.9456 7.2 7.73343C7.2 7.52126 7.28429 7.31777 7.43431 7.16775C7.58434 7.01772 7.78783 6.93343 8 6.93343C8.21217 6.93343 8.41566 7.01772 8.56569 7.16775C8.71571 7.31777 8.8 7.52126 8.8 7.73343C8.8 7.9456 8.71571 8.14909 8.56569 8.29912C8.41566 8.44915 8.21217 8.53343 8 8.53343ZM10.6667 8.53343C10.4545 8.53343 10.251 8.44915 10.101 8.29912C9.95095 8.14909 9.86667 7.9456 9.86667 7.73343C9.86667 7.52126 9.95095 7.31777 10.101 7.16775C10.251 7.01772 10.4545 6.93343 10.6667 6.93343C10.8788 6.93343 11.0823 7.01772 11.2324 7.16775C11.3824 7.31777 11.4667 7.52126 11.4667 7.73343C11.4667 7.9456 11.3824 8.14909 11.2324 8.29912C11.0823 8.44915 10.8788 8.53343 10.6667 8.53343Z" fill="#5B5B5B"/>
</g>
<defs>
<clipPath id="clip0_2_354">
<rect width="16" height="16" fill="white"/>
</clipPath>
</defs>
</svg>
