<svg width="40" height="40" viewBox="0 0 40 40" fill="none" xmlns="http://www.w3.org/2000/svg">
<path d="M18.708 15.708C18.8958 15.5202 19.0013 15.2656 19.0013 15C19.0013 14.7344 18.8958 14.4798 18.708 14.292C18.5202 14.1042 18.2656 13.9987 18 13.9987C17.7344 13.9987 17.4798 14.1042 17.292 14.292L14.468 17.116L13.674 16.392C13.4767 16.2234 13.2216 16.1381 12.9626 16.1541C12.7035 16.1701 12.4609 16.2862 12.2859 16.4778C12.1109 16.6694 12.0172 16.9216 12.0247 17.181C12.0322 17.4404 12.1402 17.6868 12.326 17.868L13.826 19.238C14.0161 19.411 14.2654 19.5043 14.5224 19.4983C14.7794 19.4923 15.0242 19.3877 15.206 19.206L18.706 15.706L18.708 15.708ZM18.708 24.292C18.8011 24.3849 18.875 24.4952 18.9254 24.6167C18.9758 24.7382 19.0018 24.8685 19.0018 25C19.0018 25.1315 18.9758 25.2618 18.9254 25.3833C18.875 25.5048 18.8011 25.6151 18.708 25.708L15.208 29.208C15.0258 29.39 14.7805 29.4946 14.523 29.5002C14.2656 29.5058 14.0159 29.4119 13.826 29.238L12.326 27.868C12.1402 27.6868 12.0322 27.4404 12.0247 27.181C12.0172 26.9216 12.1109 26.6694 12.2859 26.4778C12.4609 26.2862 12.7035 26.1701 12.9626 26.1541C13.2216 26.1381 13.4767 26.2234 13.674 26.392L14.468 27.118L17.292 24.292C17.3849 24.1989 17.4952 24.125 17.6167 24.0746C17.7382 24.0242 17.8685 23.9982 18 23.9982C18.1315 23.9982 18.2618 24.0242 18.3833 24.0746C18.5048 24.125 18.6151 24.1989 18.708 24.292V24.292ZM22 25.5C21.7348 25.5 21.4804 25.6054 21.2929 25.7929C21.1054 25.9804 21 26.2348 21 26.5C21 26.7652 21.1054 27.0196 21.2929 27.2071C21.4804 27.3946 21.7348 27.5 22 27.5H27C27.2652 27.5 27.5196 27.3946 27.7071 27.2071C27.8946 27.0196 28 26.7652 28 26.5C28 26.2348 27.8946 25.9804 27.7071 25.7929C27.5196 25.6054 27.2652 25.5 27 25.5H22ZM21 16.5C21 16.2348 21.1054 15.9804 21.2929 15.7929C21.4804 15.6054 21.7348 15.5 22 15.5H27C27.2652 15.5 27.5196 15.6054 27.7071 15.7929C27.8946 15.9804 28 16.2348 28 16.5C28 16.7652 27.8946 17.0196 27.7071 17.2071C27.5196 17.3946 27.2652 17.5 27 17.5H22C21.7348 17.5 21.4804 17.3946 21.2929 17.2071C21.1054 17.0196 21 16.7652 21 16.5ZM17 4C16.3793 3.99968 15.7739 4.19186 15.267 4.55006C14.7602 4.90826 14.3769 5.41484 14.17 6H11C10.2044 6 9.44129 6.31607 8.87868 6.87868C8.31607 7.44129 8 8.20435 8 9V33C8 33.7956 8.31607 34.5587 8.87868 35.1213C9.44129 35.6839 10.2044 36 11 36H29C29.7956 36 30.5587 35.6839 31.1213 35.1213C31.6839 34.5587 32 33.7956 32 33V9C32 8.20435 31.6839 7.44129 31.1213 6.87868C30.5587 6.31607 29.7956 6 29 6H25.83C25.6231 5.41484 25.2398 4.90826 24.733 4.55006C24.2261 4.19186 23.6207 3.99968 23 4H17ZM16 7C16 6.73478 16.1054 6.48043 16.2929 6.29289C16.4804 6.10536 16.7348 6 17 6H23C23.2652 6 23.5196 6.10536 23.7071 6.29289C23.8946 6.48043 24 6.73478 24 7C24 7.26522 23.8946 7.51957 23.7071 7.70711C23.5196 7.89464 23.2652 8 23 8H17C16.7348 8 16.4804 7.89464 16.2929 7.70711C16.1054 7.51957 16 7.26522 16 7ZM11 8H14.17C14.3769 8.58516 14.7602 9.09174 15.267 9.44994C15.7739 9.80814 16.3793 10.0003 17 10H23C23.6207 10.0003 24.2261 9.80814 24.733 9.44994C25.2398 9.09174 25.6231 8.58516 25.83 8H29C29.2652 8 29.5196 8.10536 29.7071 8.29289C29.8946 8.48043 30 8.73478 30 9V33C30 33.2652 29.8946 33.5196 29.7071 33.7071C29.5196 33.8946 29.2652 34 29 34H11C10.7348 34 10.4804 33.8946 10.2929 33.7071C10.1054 33.5196 10 33.2652 10 33V9C10 8.73478 10.1054 8.48043 10.2929 8.29289C10.4804 8.10536 10.7348 8 11 8V8Z" fill="#FFA412"/>
</svg>
